# xmcd
#
# Track frame offsets:
#	150
#	31971
#	56304
#	74889
#	109140
#	132366
#	149163
#	167181
#	191730
#	214002
#	255021
#	277812
#	294714
#	311406
#	330114
#
# Disc length: 4642
#
# Revision: 1
# Processed by: cddbd v1.5.1PL0 Copyright (c) Steve Scherf et al.
# Submitted via: audiograbber 1.80
# Normalized: r0:TDELIM( - )
#
DISCID=e312200f
DTITLE=Black Story - CD#4 - Groove and Hip-Hop
DYEAR=1900
DGENRE=
TTITLE0=Sugarhill Gang - Rapper's Delight
TTITLE1=Herbie hancock - Rock it
TTITLE2=Run DMC vs. Jason Nevins - It's like that
TTITLE3=Grandmaster Flash and Melle Mel - White lines (don't do it)
TTITLE4=West street Mob - Electric Boogie (break dance)
TTITLE5=Chad Jackson - Hear the drummer get wicked
TTITLE6=Young MC - Know how
TTITLE7=Def Jef - Just a poet (it feels mighty fine)
TTITLE8=The Pharcyde - Runnin'
TTITLE9=Jungle Brothers - Strictly dedicated
TTITLE10=Black moon - Who got the props ?
TTITLE11=Gravediggaz - 1-800-Suicide
TTITLE12=Dr Dre feat. Snoop Doggy Dogg - Nuthin' but a "G" Thang
TTITLE13=Snoop Doggy Dogg - Who am I (what's my name ?)
TTITLE14=2 Pac feat. dr Dre - California love
EXTD=
EXTT0=
EXTT1=
EXTT2=
EXTT3=
EXTT4=
EXTT5=
EXTT6=
EXTT7=
EXTT8=
EXTT9=
EXTT10=
EXTT11=
EXTT12=
EXTT13=
EXTT14=
PLAYORDER=
